# xmcd
#
# Track frame offsets: 
#        150
#        17539
#        34196
#        51593
#        66808
#        82157
#        99584
#        115522
#        132823
#        146844
#        162107
#        177956
#        192453
#        206469
#        222635
#        242885
#        259413
#        275697
#        291428
#        305889
#
# Disc length: 4310 seconds
#
# Revision: 2
# Processed by: cddbd v1.5.2PL0 Copyright (c) Steve Scherf et al.
# Submitted via: ExactAudioCopyFreeDBPlugin 1.0
#
DISCID=4210d414
DTITLE=Diverse - Gute Wahl Sommergefühle CD 1
DYEAR=1900
DGENRE=Schlager
TTITLE0=G. G. Anderson - Am weißen Strand von San Angelo
TTITLE1=Rosanna Rocci - Das schaffst Du nie
TTITLE2=Matthias Carras - Ich lieg in der Sonne
TTITLE3=Wind - Greif nach den Sternen
TTITLE4=Ronny - Krappmann Fantasy
TTITLE5=Claudia Christina - Jeden Sommer träum ich von Paris
TTITLE6=Nino de Angelo - Ich lebe wieder neu
TTITLE7=Jenney - Ich geh meinen Weg
TTITLE8=Roland Kaiser - Gefühle gehen manchmal vorbei (The sun ain't g
TTITLE8=onna shine anymore)
TTITLE9=Gaby Albrecht - Wind in meinem Haar
TTITLE10=Michael Heck - Rocky mountain lady
TTITLE11=Fancy - Hör den Bolero
TTITLE12=Uta Bresan - Viva la vida el amor
TTITLE13=Howard Carpendale - Komm bloss wieder her
TTITLE14=Juliane Werding - Ans Meer zurück
TTITLE15=Michael Morgan - Du warst der Sommer
TTITLE16=Gerd Christian - Ich werde da sein
TTITLE17=Inka - Partytime
TTITLE18=Uwe Busse - Das geht vorbei
TTITLE19=Leonard - Bis ans Ende der Nacht
EXTD=
EXTT0=
EXTT1=
EXTT2=
EXTT3=
EXTT4=
EXTT5=
EXTT6=
EXTT7=
EXTT8=
EXTT9=
EXTT10=
EXTT11=
EXTT12=
EXTT13=
EXTT14=
EXTT15=
EXTT16=
EXTT17=
EXTT18=
EXTT19=
PLAYORDER=
